HIERARCHY
ROOT Hips
{
  OFFSET -21.4546 93.2708 28.3923
  CHANNELS 6 Xposition Yposition Zposition Zrotation Xrotation Yrotation
  JOINT Spine
  {
    OFFSET 0 8 0
    CHANNELS 6 Xposition Yposition Zposition Zrotation Xrotation Yrotation
    JOINT Spine1
    {
      OFFSET 0 8 0
      CHANNELS 6 Xposition Yposition Zposition Zrotation Xrotation Yrotation
      JOINT Spine2
      {
        OFFSET 0 8 0
        CHANNELS 6 Xposition Yposition Zposition Zrotation Xrotation Yrotation
        JOINT Spine3
        {
          OFFSET 0 8 0
          CHANNELS 6 Xposition Yposition Zposition Zrotation Xrotation Yrotation
          JOINT Neck
          {
            OFFSET 0 17 0
            CHANNELS 6 Xposition Yposition Zposition Zrotation Xrotation Yrotation
            JOINT Head
            {
              OFFSET 0 10.8 0
              CHANNELS 6 Xposition Yposition Zposition Zrotation Xrotation Yrotation
              End Site
              {
                OFFSET 0 20.25 0
              }
            }
          }
          JOINT LeftShoulder
          {
            OFFSET 5 17 0
            CHANNELS 6 Xposition Yposition Zposition Zrotation Xrotation Yrotation
            JOINT LeftShoulder2
            {
              OFFSET 6.45 0 0
              CHANNELS 6 Xposition Yposition Zposition Zrotation Xrotation Yrotation
              JOINT LeftArm
              {
                OFFSET 6.45 0 0
                CHANNELS 6 Xposition Yposition Zposition Zrotation Xrotation Yrotation
                JOINT LeftForeArm
                {
                  OFFSET 0 -32.4 -2
                  CHANNELS 6 Xposition Yposition Zposition Zrotation Xrotation Yrotation
                  JOINT LeftHand
                  {
                    OFFSET 0 -25.65 2
                    CHANNELS 6 Xposition Yposition Zposition Zrotation Xrotation Yrotation
                    JOINT LeftHandThumb1
                    {
                      OFFSET -0.5 -1.5 2.65
                      CHANNELS 6 Xposition Yposition Zposition Zrotation Xrotation Yrotation
                      JOINT LeftHandThumb2
                      {
                        OFFSET 0 -3.8 3.7
                        CHANNELS 6 Xposition Yposition Zposition Zrotation Xrotation Yrotation
                        JOINT LeftHandThumb3
                        {
                          OFFSET 0 -3 2.7
                          CHANNELS 6 Xposition Yposition Zposition Zrotation Xrotation Yrotation
                          End Site
                          {
                            OFFSET 0 -2.3 1.8
                          }
                        }
                      }
                    }
                    JOINT LeftHandIndex
                    {
                      OFFSET 0 -1.9 1.6
                      CHANNELS 6 Xposition Yposition Zposition Zrotation Xrotation Yrotation
                      JOINT LeftHandIndex1
                      {
                        OFFSET 0 -8.3 1.9
                        CHANNELS 6 Xposition Yposition Zposition Zrotation Xrotation Yrotation
                        JOINT LeftHandIndex2
                        {
                          OFFSET 0 -4.5 0
                          CHANNELS 6 Xposition Yposition Zposition Zrotation Xrotation Yrotation
                          JOINT LeftHandIndex3
                          {
                            OFFSET 0 -3.4 0
                            CHANNELS 6 Xposition Yposition Zposition Zrotation Xrotation Yrotation
                            End Site
                            {
                              OFFSET 0 -2.6 0
                            }
                          }
                        }
                      }
                    }
                    JOINT LeftHandMiddle
                    {
                      OFFSET -0.25 -2.2 0.4
                      CHANNELS 6 Xposition Yposition Zposition Zrotation Xrotation Yrotation
                      JOINT LeftHandMiddle1
                      {
                        OFFSET 0 -8.3 1
                        CHANNELS 6 Xposition Yposition Zposition Zrotation Xrotation Yrotation
                        JOINT LeftHandMiddle2
                        {
                          OFFSET 0 -4.65 0
                          CHANNELS 6 Xposition Yposition Zposition Zrotation Xrotation Yrotation
                          JOINT LeftHandMiddle3
                          {
                            OFFSET 0 -3.3 0
                            CHANNELS 6 Xposition Yposition Zposition Zrotation Xrotation Yrotation
                            End Site
                            {
                              OFFSET 0 -2.7 0
                            }
                          }
                        }
                      }
                    }
                    JOINT LeftHandRing
                    {
                      OFFSET -0.5 -2.15 -0.8
                      CHANNELS 6 Xposition Yposition Zposition Zrotation Xrotation Yrotation
                      JOINT LeftHandRing1
                      {
                        OFFSET 0 -7.75 -0.2
                        CHANNELS 6 Xposition Yposition Zposition Zrotation Xrotation Yrotation
                        JOINT LeftHandRing2
                        {
                          OFFSET 0 -3.8 0
                          CHANNELS 6 Xposition Yposition Zposition Zrotation Xrotation Yrotation
                          JOINT LeftHandRing3
                          {
                            OFFSET 0 -3.4 0
                            CHANNELS 6 Xposition Yposition Zposition Zrotation Xrotation Yrotation
                            End Site
                            {
                              OFFSET 0 -2.6 0
                            }
                          }
                        }
                      }
                    }
                    JOINT LeftHandPinky
                    {
                      OFFSET -0.75 -1.75 -1.85
                      CHANNELS 6 Xposition Yposition Zposition Zrotation Xrotation Yrotation
                      JOINT LeftHandPinky1
                      {
                        OFFSET 0 -7.15 -1
                        CHANNELS 6 Xposition Yposition Zposition Zrotation Xrotation Yrotation
                        JOINT LeftHandPinky2
                        {
                          OFFSET 0 -3 0
                          CHANNELS 6 Xposition Yposition Zposition Zrotation Xrotation Yrotation
                          JOINT LeftHandPinky3
                          {
                            OFFSET 0 -2.35 0
                            CHANNELS 6 Xposition Yposition Zposition Zrotation Xrotation Yrotation
                            End Site
                            {
                              OFFSET 0 -2.1 0
                            }
                          }
                        }
                      }
                    }
                  }
                }
              }
            }
          }
          JOINT RightShoulder
          {
            OFFSET -5 17 0
            CHANNELS 6 Xposition Yposition Zposition Zrotation Xrotation Yrotation
            JOINT RightShoulder2
            {
              OFFSET -6.45 0 0
              CHANNELS 6 Xposition Yposition Zposition Zrotation Xrotation Yrotation
              JOINT RightArm
              {
                OFFSET -6.45 0 0
                CHANNELS 6 Xposition Yposition Zposition Zrotation Xrotation Yrotation
                JOINT RightForeArm
                {
                  OFFSET 0 -32.4 -2
                  CHANNELS 6 Xposition Yposition Zposition Zrotation Xrotation Yrotation
                  JOINT RightHand
                  {
                    OFFSET 0 -25.65 2
                    CHANNELS 6 Xposition Yposition Zposition Zrotation Xrotation Yrotation
                    JOINT RightHandThumb1
                    {
                      OFFSET 0.5 -1.5 2.65
                      CHANNELS 6 Xposition Yposition Zposition Zrotation Xrotation Yrotation
                      JOINT RightHandThumb2
                      {
                        OFFSET 0 -3.8 3.7
                        CHANNELS 6 Xposition Yposition Zposition Zrotation Xrotation Yrotation
                        JOINT RightHandThumb3
                        {
                          OFFSET 0 -3 2.7
                          CHANNELS 6 Xposition Yposition Zposition Zrotation Xrotation Yrotation
                          End Site
                          {
                            OFFSET 0 -2.3 1.8
                          }
                        }
                      }
                    }
                    JOINT RightHandIndex
                    {
                      OFFSET 0 -1.9 1.6
                      CHANNELS 6 Xposition Yposition Zposition Zrotation Xrotation Yrotation
                      JOINT RightHandIndex1
                      {
                        OFFSET 0 -8.3 1.9
                        CHANNELS 6 Xposition Yposition Zposition Zrotation Xrotation Yrotation
                        JOINT RightHandIndex2
                        {
                          OFFSET 0 -4.5 0
                          CHANNELS 6 Xposition Yposition Zposition Zrotation Xrotation Yrotation
                          JOINT RightHandIndex3
                          {
                            OFFSET 0 -3.4 0
                            CHANNELS 6 Xposition Yposition Zposition Zrotation Xrotation Yrotation
                            End Site
                            {
                              OFFSET 0 -2.6 0
                            }
                          }
                        }
                      }
                    }
                    JOINT RightHandMiddle
                    {
                      OFFSET 0.25 -2.2 0.4
                      CHANNELS 6 Xposition Yposition Zposition Zrotation Xrotation Yrotation
                      JOINT RightHandMiddle1
                      {
                        OFFSET 0 -8.3 1
                        CHANNELS 6 Xposition Yposition Zposition Zrotation Xrotation Yrotation
                        JOINT RightHandMiddle2
                        {
                          OFFSET 0 -4.65 0
                          CHANNELS 6 Xposition Yposition Zposition Zrotation Xrotation Yrotation
                          JOINT RightHandMiddle3
                          {
                            OFFSET 0 -3.3 0
                            CHANNELS 6 Xposition Yposition Zposition Zrotation Xrotation Yrotation
                            End Site
                            {
                              OFFSET 0 -2.7 0
                            }
                          }
                        }
                      }
                    }
                    JOINT RightHandRing
                    {
                      OFFSET 0.5 -2.15 -0.8
                      CHANNELS 6 Xposition Yposition Zposition Zrotation Xrotation Yrotation
                      JOINT RightHandRing1
                      {
                        OFFSET 0 -7.75 -0.2
                        CHANNELS 6 Xposition Yposition Zposition Zrotation Xrotation Yrotation
                        JOINT RightHandRing2
                        {
                          OFFSET 0 -3.8 0
                          CHANNELS 6 Xposition Yposition Zposition Zrotation Xrotation Yrotation
                          JOINT RightHandRing3
                          {
                            OFFSET 0 -3.4 0
                            CHANNELS 6 Xposition Yposition Zposition Zrotation Xrotation Yrotation
                            End Site
                            {
                              OFFSET 0 -2.6 0
                            }
                          }
                        }
                      }
                    }
                    JOINT RightHandPinky
                    {
                      OFFSET 0.75 -1.75 -1.85
                      CHANNELS 6 Xposition Yposition Zposition Zrotation Xrotation Yrotation
                      JOINT RightHandPinky1
                      {
                        OFFSET 0 -7.15 -1
                        CHANNELS 6 Xposition Yposition Zposition Zrotation Xrotation Yrotation
                        JOINT RightHandPinky2
                        {
                          OFFSET 0 -3 0
                          CHANNELS 6 Xposition Yposition Zposition Zrotation Xrotation Yrotation
                          JOINT RightHandPinky3
                          {
                            OFFSET 0 -2.35 0
                            CHANNELS 6 Xposition Yposition Zposition Zrotation Xrotation Yrotation
                            End Site
                            {
                              OFFSET 0 -2.1 0
                            }
                          }
                        }
                      }
                    }
                  }
                }
              }
            }
          }
        }
      }
    }
  }
  JOINT LeftUpLeg
  {
    OFFSET 8 0 0
    CHANNELS 6 Xposition Yposition Zposition Zrotation Xrotation Yrotation
    JOINT LeftLeg
    {
      OFFSET 0 -45 -1
      CHANNELS 6 Xposition Yposition Zposition Zrotation Xrotation Yrotation
      JOINT LeftFoot
      {
        OFFSET 0 -41 -2
        CHANNELS 6 Xposition Yposition Zposition Zrotation Xrotation Yrotation
        JOINT LeftToeBase
        {
          OFFSET 0 -7.5 12.5
          CHANNELS 6 Xposition Yposition Zposition Zrotation Xrotation Yrotation
          JOINT LeftFootToe
          {
            OFFSET 0 0 4
            CHANNELS 6 Xposition Yposition Zposition Zrotation Xrotation Yrotation
            End Site
            {
              OFFSET 0 0 0
            }
          }
        }
      }
    }
  }
  JOINT RightUpLeg
  {
    OFFSET -8 0 0
    CHANNELS 6 Xposition Yposition Zposition Zrotation Xrotation Yrotation
    JOINT RightLeg
    {
      OFFSET 0 -45 -1
      CHANNELS 6 Xposition Yposition Zposition Zrotation Xrotation Yrotation
      JOINT RightFoot
      {
        OFFSET 0 -41 -2
        CHANNELS 6 Xposition Yposition Zposition Zrotation Xrotation Yrotation
        JOINT RightToeBase
        {
          OFFSET 0 -7.5 12.5
          CHANNELS 6 Xposition Yposition Zposition Zrotation Xrotation Yrotation
          JOINT RightFootToe
          {
            OFFSET 0 0 4
            CHANNELS 6 Xposition Yposition Zposition Zrotation Xrotation Yrotation
            End Site
            {
              OFFSET 0 0 0
            }
          }
        }
      }
    }
  }
}
MOTION
Frames:	4
Frame Time:	0.0111111
0 93.5 0 0 0 -0 0 8 0 0 0 -0 0 8 0 0 0 -0 0 8 0 0 0 -0 0 8 0 0 0 -0 0 17 0 0 0 -0 0 10.8 0 0 0 -0 5 17 0 0 0 -0 6.45 0 0 0 0 -0 6.45 0 0 90.0002 0 -0 0 -32.4 -2 0 0 -0 0 -25.65 2 0 0 -0 -0.5 -1.5 2.65 0 0 -0 0 -3.8 3.7 0 0 -0 0 -3 2.7 0 0 -0 -2.84217e-14 -1.9 1.6 0 0 -0 2.84217e-14 -8.3 1.9 0 0 -0 0 -4.5 0 0 0 -0 0 -3.4 0 0 0 -0 -0.25 -2.2 0.4 0 0 -0 2.84217e-14 -8.3 1 0 0 -0 0 -4.65 0 0 0 -0 0 -3.3 0 0 0 -0 -0.5 -2.15 -0.8 0 0 -0 0 -7.75 -0.2 0 0 -0 2.84217e-14 -3.8 0 0 0 -0 0 -3.4 0 0 0 -0 -0.75 -1.75 -1.85 0 0 -0 0 -7.15 -1 0 0 -0 0 -3 0 0 0 -0 0 -2.35 0 0 0 -0 -5 17 0 0 0 -0 -6.45 0 0 -0.00364534 0 -0 -6.45 0 0 -90.0002 0 -0 0 -32.4 -2 0 0 -0 2.84217e-14 -25.65 2 0 0 -0 0.5 -1.5 2.65 0 0 -0 2.84217e-14 -3.8 3.7 0 0 -0 -2.84217e-14 -3 2.7 0 0 -0 0 -1.9 1.6 0 0 -0 0 -8.3 1.9 -4.251e-24 2.84688e-19 0.000855548 0 -4.5 0 -1.55301e-18 3.69354e-23 -1.94126e-19 2.84217e-14 -3.4 0 -1.55301e-18 1.90413e-23 -1.94126e-19 0.25 -2.2 0.4 0 0 -0 0 -8.3 1 -5.96511e-24 -3.37235e-19 -0.00101346 0 -4.65 0 1.553e-18 -1.04856e-23 -0 0 -3.3 0 1.553e-18 -7.69626e-25 -0 0.5 -2.15 -0.8 0 0 -0 0 -7.75 -0.2 0 0 -0 0 -3.8 0 0 0 -0 2.84217e-14 -3.4 0 0 0 -0 0.75 -1.75 -1.85 0 0 -0 0 -7.15 -1 0 0 -0 -2.84217e-14 -3 0 0 0 -0 2.84217e-14 -2.35 0 0 0 -0 8 0 0 0 0 -0 0 -45 -1 0 0 -0 0 -41 -2 0 0 -0 0 -7.5 12.5 0 0 -0 0 0 4 0 0 -0 -8 0 0 0 0 -0 0 -45 -1 0 0 -0 0 -41 -2 0 0 -0 0 -7.5 12.5 0 0 -0 0 0 4 0 0 -0 
-21.4425 93.0253 28.5106 0.019989 0.0389895 133.573 -3.55271e-15 8 0 0.487328 -3.6459 -1.7062 0 8 0 -0.304391 1.77385 -0.445266 1.77636e-15 8 0 -0.153911 0.886685 -0.223792 1.77636e-15 8 7.10543e-15 -0.153891 0.886569 -0.223769 0 17 0 -0.402922 -2.59599 0.994295 0 10.8 3.55271e-15 -2.11637 1.25017 2.4171 5 17 0 -1.64072 -5.8621 -4.1996 6.45 0 0 1.09368 0.540467 1.71878 6.45 -2.84217e-14 -3.55271e-15 2.18504 0.369791 -12.6365 -1.77636e-15 -32.4 -2 0.0133303 0.134226 13.093 1.77636e-15 -25.65 2 -1.93442 3.34646 -3.87047 -0.5 -1.5 2.65 -2.86318 -7.73537 -4.59191 -1.77636e-15 -3.8 3.7 -2.14713e-15 9.93066 3.22893e-15 0 -3 2.7 8.89212e-16 5.4508 3.195e-15 1.77636e-15 -1.9 1.6 -9.93923e-17 2.98177e-16 9.54166e-15 -1.77636e-15 -8.3 1.9 3.26978e-16 0.765494 1.27234e-14 -1.77636e-15 -4.5 3.55271e-15 -9.93923e-17 -1.98785e-16 -0 0 -3.4 3.55271e-15 -0 -3.97569e-16 -0 -0.25 -2.2 0.4 -9.93923e-17 2.98177e-16 9.54166e-15 3.55271e-15 -8.3 1 -0.0143893 0.964059 1.2724e-14 0 -4.65 0 4.96962e-17 -9.93923e-17 3.18055e-15 0 -3.3 3.55271e-15 -4.96962e-17 -4.96962e-17 3.18055e-15 -0.5 -2.15 -0.8 -9.93923e-17 2.98177e-16 9.54166e-15 -3.55271e-15 -7.75 -0.2 -0.0272395 1.37058 1.59073e-14 0 -3.8 -3.55271e-15 4.96962e-17 -1.49089e-16 -0 -1.77636e-15 -3.4 -3.55271e-15 2.48481e-17 -7.45443e-17 -0 -0.75 -1.75 -1.85 -9.93923e-17 2.98177e-16 9.54166e-15 -3.55271e-15 -7.15 -1 -0.032917 1.56273 1.59087e-14 0 -3 0 -2.48481e-17 -4.96962e-17 -1.27222e-14 -1.77636e-15 -2.35 0 -2.48481e-17 -2.48481e-17 -6.36111e-15 -5 17 0 0.599982 -4.99194 -2.1016 -6.45 2.84217e-14 0 0.0022622 0.551912 -0.613267 -6.45 0 0 2.85772 -1.63295 7.99853 3.55271e-15 -32.4 -2 -1.96062 -2.32652 -6.02804 3.55271e-15 -25.65 2 1.97633 2.35876 2.93417 0.5 -1.5 2.65 -1.45749 -2.08128 0.223444 0 -3.8 3.7 7.95139e-16 9.99674 -0 0 -3 2.7 -4.03181e-16 -0.101082 -3.18056e-15 0 -1.9 1.6 -0 -7.95139e-16 -0 0 -8.3 1.9 1.37034 -0.403479 0.000855569 0 -4.5 -1.77636e-15 5.43734 0 6.36111e-15 1.77636e-15 -3.4 0 5.05941 3.18055e-15 3.18055e-15 0.25 -2.2 0.4 -0 -7.95139e-16 -0 0 -8.3 1 1.0312 -0.0345117 -0.00101346 0 -4.65 0 -4.41391e-32 -7.95139e-16 -3.18055e-15 1.77636e-15 -3.3 7.10543e-15 8.82781e-32 7.95139e-16 -6.36111e-15 0.5 -2.15 -0.8 -0 -7.95139e-16 -0 -3.55271e-15 -7.75 -0.2 0.354365 0.704152 3.18079e-15 0 -3.8 -3.55271e-15 6.00256 -1.59028e-15 -3.18055e-15 -3.55271e-15 -3.4 0 5.54562 -4.77083e-15 -0 0.75 -1.75 -1.85 -0 -7.95139e-16 -0 3.55271e-15 -7.15 -1 0.015564 1.07324 3.18111e-15 5.32907e-15 -3 0 -1.32417e-31 -7.95139e-16 -9.54166e-15 -1.77636e-15 -2.35 3.55271e-15 -2.64834e-31 -2.38542e-15 -6.36111e-15 8 1.42109e-14 0 -0.112067 2.0212 1.65384 -1.77636e-15 -45 -1 -0.00714845 3.83191 0.106965 0 -41 -2 0.0285645 -5.8135 -10.4179 1.77636e-15 -7.5 12.5 7.76503e-19 0 -3.18055e-15 0 0 4 7.91136 1.91743 4.11305 -8 0 0 -0.0457085 -3.71363 0.565598 -1.77636e-15 -45 -1 -0.0254196 9.86285 0.60913 -3.55271e-15 -41 -2 0.0288516 -6.10869 3.04276 -1.77636e-15 -7.5 12.5 -4.85314e-20 -9.70628e-20 -0 -1.77636e-15 0 4 -0.89491 -1.47108 -14.8121 
-21.4446 93.0257 28.5124 0.0206798 0.0392664 133.577 -1.77636e-15 8 0 0.488164 -3.6485 -1.70899 0 8 -3.55271e-15 -0.304644 1.77572 -0.448949 0 8 0 -0.154053 0.88762 -0.225637 1.77636e-15 8 0 -0.154033 0.887503 -0.225611 0 17 0 -0.409344 -2.59262 0.996909 3.55271e-15 10.8 -3.55271e-15 -2.113 1.23988 2.42317 5 17 0 -1.64644 -5.86902 -4.19135 6.45 -2.84217e-14 -3.55271e-15 1.09857 0.536174 1.72028 6.45 -2.84217e-14 3.55271e-15 2.18749 0.379013 -12.6291 1.77636e-15 -32.4 -2 0.0111513 0.134491 13.0836 -3.55271e-15 -25.65 2 -1.9355 3.34639 -3.87184 -0.5 -1.5 2.65 -2.86701 -7.73351 -4.59477 0 -3.8 3.7 -3.97569e-16 9.93069 -0 -8.88178e-16 -3 2.7 -4.91688e-16 5.44999 -3.195e-15 -5.32907e-15 -1.9 1.6 9.93923e-17 1.98785e-16 -0 -1.77636e-15 -8.3 1.9 2.41257e-16 0.765062 -3.18084e-15 3.55271e-15 -4.5 3.55271e-15 -9.93923e-17 -4.96962e-17 -0 0 -3.4 0 -9.93923e-17 1.49089e-16 -3.18055e-15 -0.25 -2.2 0.4 9.93923e-17 1.98785e-16 -0 1.77636e-15 -8.3 1 -0.0143957 0.964033 -0 -3.55271e-15 -4.65 3.55271e-15 1.49089e-16 -9.93923e-17 -3.18055e-15 1.77636e-15 -3.3 0 4.96962e-17 -9.93923e-17 -3.18055e-15 -0.5 -2.15 -0.8 9.93923e-17 1.98785e-16 -0 1.77636e-15 -7.75 -0.2 -0.0272755 1.37136 -6.36293e-15 0 -3.8 -3.55271e-15 4.96962e-17 -4.96962e-17 -1.59028e-14 1.77636e-15 -3.4 3.55271e-15 -2.48481e-17 -7.45443e-17 -6.36111e-15 -0.75 -1.75 -1.85 9.93923e-17 1.98785e-16 -0 0 -7.15 -1 -0.0329663 1.5639 -9.54522e-15 -5.32907e-15 -3 0 -0 -3.72721e-17 -0 5.32907e-15 -2.35 0 -0 -3.72721e-17 -0 -5 17 0 0.591855 -5.00088 -2.08867 -6.45 0 0 0.00226349 0.553367 -0.611788 -6.45 -2.84217e-14 0 2.86331 -1.6298 7.99719 -3.55271e-15 -32.4 -2 -1.96098 -2.3251 -6.01456 0 -25.65 2 1.97052 2.35842 2.94283 0.5 -1.5 2.65 -1.4549 -2.08526 0.225456 0 -3.8 3.7 -1.21404e-15 10.0008 1.61481e-14 0 -3 2.7 -1.93173e-16 -0.101082 3.18056e-15 0 -1.9 1.6 -8.82781e-32 7.95139e-16 6.36111e-15 0 -8.3 1.9 1.36736 -0.404529 0.000855569 1.77636e-15 -4.5 0 5.43766 -3.18055e-15 9.54166e-15 1.77636e-15 -3.4 1.77636e-15 5.05968 0 -3.18055e-15 0.25 -2.2 0.4 -8.82781e-32 7.95139e-16 6.36111e-15 0 -8.3 1 1.02898 -0.0350861 -0.00101346 -1.77636e-15 -4.65 7.10543e-15 7.95139e-16 0 3.18055e-15 3.55271e-15 -3.3 3.55271e-15 1.59028e-15 7.95139e-16 -0 0.5 -2.15 -0.8 -8.82781e-32 7.95139e-16 6.36111e-15 -3.55271e-15 -7.75 -0.2 0.353641 0.704527 1.27232e-14 -1.77636e-15 -3.8 -3.55271e-15 5.99844 -3.18055e-15 -3.18055e-15 3.55271e-15 -3.4 3.55271e-15 5.5421 0 3.18055e-15 0.75 -1.75 -1.85 -8.82781e-32 7.95139e-16 6.36111e-15 1.77636e-15 -7.15 -1 0.0155876 1.07409 1.27245e-14 -1.77636e-15 -3 3.55271e-15 -0 0 3.18055e-15 3.55271e-15 -2.35 0 -7.95139e-16 -1.59028e-15 -6.36111e-15 8 0 0 -0.11075 2.0118 1.65703 3.55271e-15 -45 -1 -0.00719251 3.84766 0.107185 0 -41 -2 0.030138 -5.80685 -10.4211 -3.55271e-15 -7.5 12.5 2.28098e-18 -0.013114 3.18055e-15 1.77636e-15 -2.1684e-19 4 7.90816 1.91549 4.11346 -8 0 7.10543e-15 -0.0454595 -3.71156 0.562418 3.55271e-15 -45 -1 -0.0253938 9.85575 0.609479 -1.77636e-15 -41 -2 0.0314307 -6.11893 3.06413 1.77636e-15 -7.5 12.5 -1.55301e-18 6.21202e-18 -3.18055e-15 -1.77636e-15 0 4 -0.884668 -1.42983 -14.8124 
-21.4455 93.0262 28.5139 0.0216459 0.0381983 133.58 -1.77636e-15 8 0 0.487468 -3.64851 -1.71198 3.55271e-15 8 -3.55271e-15 -0.303654 1.77577 -0.454129 0 8 0 -0.153658 0.887511 -0.228229 0 8 0 -0.153733 0.887644 -0.228205 -1.77636e-15 17 0 -0.416893 -2.58873 0.999588 -3.55271e-15 10.8 -3.55271e-15 -2.10886 1.22975 2.43245 5 17 -7.10543e-15 -1.65213 -5.87576 -4.17895 6.45 0 3.55271e-15 1.10321 0.531921 1.72161 6.45 0 0 2.19078 0.387655 -12.6192 -1.77636e-15 -32.4 -2 0.00944225 0.134064 13.0726 0 -25.65 2 -1.93579 3.34662 -3.87247 -0.5 -1.5 2.65 -2.87125 -7.73029 -4.59794 -1.77636e-15 -3.8 3.7 9.54299e-16 9.92857 -3.22891e-15 0 -3 2.7 8.99825e-16 5.45035 -3.195e-15 1.77636e-15 -1.9 1.6 -9.93923e-17 9.93923e-17 3.18055e-15 -1.77636e-15 -8.3 1.9 -5.69054e-17 0.765331 -3.18084e-15 -1.77636e-15 -4.5 0 9.93923e-17 0 -0 0 -3.4 0 1.10348e-32 -1.98785e-16 3.18055e-15 -0.25 -2.2 0.4 -9.93923e-17 9.93923e-17 3.18055e-15 -1.77636e-15 -8.3 1 -0.0143957 0.964784 -3.18101e-15 0 -4.65 0 1.49089e-16 9.93923e-17 -0 5.32907e-15 -3.3 -3.55271e-15 0 9.93923e-17 -0 -0.5 -2.15 -0.8 -9.93923e-17 9.93923e-17 3.18055e-15 1.77636e-15 -7.75 -0.2 -0.0272755 1.37236 -0 0 -3.8 0 2.48481e-17 7.45443e-17 3.18055e-15 -1.77636e-15 -3.4 0 0 4.96962e-17 -0 -0.75 -1.75 -1.85 -9.93923e-17 9.93923e-17 3.18055e-15 -1.77636e-15 -7.15 -1 -0.0329663 1.56529 -0 0 -3 0 2.75869e-33 2.48481e-17 -6.36111e-15 0 -2.35 0 -2.48481e-17 1.2424e-17 -6.36111e-15 -5 17 -7.10543e-15 0.583064 -5.00993 -2.07137 -6.45 0 0 0.0022718 0.554063 -0.611879 -6.45 0 0 2.86866 -1.62634 7.99924 -3.55271e-15 -32.4 -2 -1.96008 -2.32547 -6.00297 0 -25.65 2 1.96459 2.35933 2.95321 0.5 -1.5 2.65 -1.45225 -2.08857 0.226981 0 -3.8 3.7 1.68333e-15 10.0051 -9.68901e-15 -3.55271e-15 -3 2.7 -3.59096e-16 -0.101082 -6.36112e-15 0 -1.9 1.6 -2.64834e-31 -1.59028e-15 -9.54166e-15 0 -8.3 1.9 1.36696 -0.403469 0.000855569 1.77636e-15 -4.5 -1.77636e-15 5.43852 1.59028e-15 3.18055e-15 -3.55271e-15 -3.4 0 5.06043 0 -0 0.25 -2.2 0.4 -2.64834e-31 -1.59028e-15 -9.54166e-15 -3.55271e-15 -8.3 1 1.02869 -0.0339271 -0.00101346 -3.55271e-15 -4.65 3.55271e-15 1.59028e-15 7.95139e-16 6.36111e-15 1.77636e-15 -3.3 0 -4.41391e-32 7.95139e-16 3.18055e-15 0.5 -2.15 -0.8 -2.64834e-31 -1.59028e-15 -9.54166e-15 -7.10543e-15 -7.75 -0.2 0.3537 0.705883 9.54239e-15 5.32907e-15 -3.8 0 5.99246 -1.59028e-15 3.18055e-15 7.10543e-15 -3.4 0 5.53829 0 -0 0.75 -1.75 -1.85 -2.64834e-31 -1.59028e-15 -9.54166e-15 0 -7.15 -1 0.0155876 1.07561 3.18112e-15 1.77636e-15 -3 3.55271e-15 1.59028e-15 0 3.18055e-15 1.77636e-15 -2.35 3.55271e-15 1.59028e-15 0 -3.18055e-15 8 1.42109e-14 7.10543e-15 -0.109281 2.01032 1.65726 -5.32907e-15 -45 -1 -0.00720475 3.84812 0.107354 0 -41 -2 0.0304419 -5.8058 -10.4204 3.55271e-15 -7.5 12.5 -1.31035e-18 -0.0128954 -1.27222e-14 0 2.1684e-19 4 7.90345 1.91258 4.1145 -8 1.42109e-14 0 -0.0456387 -3.7089 0.557601 3.55271e-15 -45 -1 -0.0268893 9.84819 0.610492 -1.77636e-15 -41 -2 0.0309649 -6.11397 3.08867 -1.77636e-15 -7.5 12.5 1.55301e-18 3.10601e-18 -6.36111e-15 3.55271e-15 3.46945e-18 4 -0.871353 -1.40113 -14.8121 
